<svg xmlns="http://www.w3.org/2000/svg" xmlns:xlink="http://www.w3.org/1999/xlink" version="1.1" x="0px" y="0px" viewBox="0 0 100 125" enable-background="new 0 0 100 100" xml:space="preserve"><path d="M90.242,7.532c-4.156-4.157-9.684-6.446-15.562-6.446c-1.695,0-3.354,0.212-4.966,0.582  c-0.364,0.084-0.728,0.169-1.085,0.271c-0.315,0.09-0.625,0.192-0.936,0.296c-0.29,0.097-0.577,0.2-0.861,0.308  c-0.305,0.116-0.607,0.232-0.905,0.361c-0.348,0.15-0.687,0.317-1.024,0.485c-0.344,0.17-0.683,0.347-1.016,0.535  c-0.397,0.223-0.789,0.455-1.171,0.703c-0.205,0.133-0.404,0.274-0.604,0.415c-0.357,0.249-0.707,0.509-1.049,0.779  c-0.168,0.132-0.336,0.262-0.5,0.4c-0.497,0.417-0.983,0.849-1.445,1.311c-0.479,0.479-0.924,0.982-1.352,1.496  c-0.104,0.125-0.206,0.251-0.307,0.378c-0.401,0.504-0.785,1.018-1.138,1.549c-0.008,0.012-0.017,0.022-0.024,0.034  c-0.386,0.583-0.735,1.186-1.062,1.799c-0.028,0.054-0.056,0.109-0.084,0.164c-2.102,4.03-2.903,8.624-2.262,13.177l-0.009,0.001  c0.01,0.068,0.027,0.136,0.037,0.204c0.047,0.311,0.1,0.62,0.16,0.93c0.007,0.035,0.016,0.07,0.022,0.105  c0.014,0.072,0.029,0.144,0.045,0.215c0.03,0.146,0.057,0.291,0.091,0.437c0.088,0.382,0.191,0.762,0.301,1.143  c0.03,0.104,0.058,0.21,0.089,0.314c0.015,0.05,0.026,0.1,0.042,0.149c0.017,0.053,0.028,0.106,0.045,0.159l0.011-0.004  c0.141,0.44,0.296,0.875,0.464,1.305c0.144,0.37,0.31,0.731,0.475,1.095c0.086,0.191,0.165,0.386,0.257,0.574  c-0.063-0.014-0.126-0.021-0.188-0.036c-0.004,0.003-0.007,0.006-0.011,0.008c-1.053-0.271-2.021-0.892-2.682-1.86  c-0.842-1.234-0.988-2.727-0.561-4.045c-0.632-3.98-0.216-8.038,1.14-11.77c-3.307-0.142-6.686,0.725-9.631,2.733  c-5.136,3.501-7.559,9.477-6.794,15.245l-1.653,1.127l-0.745,3.938l-2.361-0.447l-0.988,5.223l-4.179-0.79l-0.558,2.951  l-4.224-0.799l-1.357,7.176l-6.222-1.177l-0.37,1.952l-2.452-0.464l-1.1,5.813l-5.631-1.065l-1.031,5.451l0.143,0.001l3.41,0.646  L31.92,45.487l1.689,2.479L11.042,63.354l3.545,0.671L43.426,44.36c5.2,3.297,12.074,3.401,17.484-0.288  c0.918-0.626,1.748-1.332,2.491-2.101c1.008,0.605,2.054,1.138,3.142,1.57c0.003,0.001,0.006,0.003,0.009,0.004v-0.001  c0.826,0.328,1.674,0.594,2.537,0.819c-1.247,1.317-3.207,1.835-5.011,1.154c-0.139-0.052-0.259-0.13-0.389-0.193  c-0.356,0.29-0.712,0.581-1.095,0.848l-0.005,0.005l-0.164,0.112c-4.229,2.884-9.225,3.784-13.884,2.916  c0.62,2.671,1.941,5.141,3.806,7.173l-0.71,1.881l1.65,3.652l-2.19,0.99l2.19,4.843l-3.875,1.752l1.237,2.737l-3.917,1.771  l3.008,6.654l-5.77,2.609l0.818,1.811l-2.273,1.028l2.437,5.391l-5.223,2.361l2.286,5.055l0.117-0.081l3.162-1.43l10.702-28.362  l2.807,1.059l-9.643,25.557l3.288-1.486l12.323-32.657c6.15-0.287,11.839-4.147,14.15-10.273c0.845-2.238,1.134-4.543,0.966-6.779  c3.885-0.94,7.456-2.905,10.354-5.804C98.823,30.075,98.823,16.113,90.242,7.532z M79.381,41.497  c-1.213-4.476-4.348-8.366-8.849-10.377c-0.013,1.097-0.11,2.189-0.313,3.264c-0.237,1.254-0.613,2.479-1.104,3.663  c0.874,0.95,1.33,2.232,1.219,3.538c-0.919-0.214-1.82-0.486-2.692-0.834c-0.594-0.237-1.173-0.502-1.734-0.793  c-0.005-0.003-0.01-0.005-0.015-0.007c-0.207-0.108-0.4-0.239-0.603-0.354c3.387-5.217,3.525-12.17-0.198-17.631  c-1.709-2.506-4.015-4.353-6.591-5.516c-0.951,2.328-1.406,4.848-1.307,7.376c0.986,0.294,1.888,0.896,2.513,1.813  c1.004,1.473,1.025,3.308,0.246,4.78c-0.083,0.155-0.164,0.311-0.266,0.458c-0.024,0.034-0.055,0.064-0.079,0.099  c-0.137,0.187-0.282,0.368-0.45,0.536c-0.098,0.098-0.203,0.181-0.306,0.268c-0.066,0.056-0.129,0.113-0.198,0.166  c-0.136,0.102-0.276,0.193-0.42,0.278c-0.052,0.03-0.104,0.057-0.155,0.085c-0.119-0.214-0.242-0.425-0.353-0.643  c-0.12-0.238-0.226-0.481-0.336-0.725c-0.14-0.309-0.28-0.616-0.404-0.932c-0.181-0.464-0.348-0.931-0.49-1.404  c-0.043-0.14-0.074-0.283-0.113-0.425c-0.121-0.438-0.233-0.877-0.322-1.32c-0.023-0.116-0.042-0.234-0.063-0.352  c-0.743-4.101-0.142-8.398,1.816-12.174c0.024-0.048,0.049-0.096,0.074-0.144c0.279-0.528,0.583-1.047,0.916-1.552  c0.007-0.011,0.015-0.021,0.022-0.032c0.302-0.457,0.634-0.9,0.98-1.335c0.088-0.109,0.176-0.219,0.266-0.327  c0.368-0.442,0.752-0.876,1.167-1.292c0.4-0.4,0.82-0.772,1.248-1.132c0.142-0.119,0.287-0.231,0.432-0.346  c0.296-0.234,0.598-0.457,0.905-0.672c0.174-0.121,0.347-0.244,0.523-0.359c0.329-0.214,0.667-0.412,1.007-0.604  c0.292-0.164,0.588-0.318,0.887-0.467c0.29-0.144,0.581-0.287,0.877-0.415c0.26-0.112,0.523-0.214,0.788-0.314  c0.243-0.093,0.488-0.181,0.735-0.263c0.271-0.09,0.542-0.18,0.816-0.258c0.303-0.085,0.608-0.158,0.915-0.229  c0.204-0.047,0.405-0.104,0.611-0.145l-0.001-0.004c1.205-0.236,2.441-0.359,3.697-0.359c5.077,0,9.851,1.978,13.44,5.567  c7.411,7.412,7.411,19.471,0,26.882C85.669,38.987,82.657,40.666,79.381,41.497z"/><text x="0" y="115" fill="#000000" font-size="5px" font-weight="bold" font-family="'Helvetica Neue', Helvetica, Arial-Unicode, Arial, Sans-serif">Created by Nikita Kozin</text><text x="0" y="120" fill="#000000" font-size="5px" font-weight="bold" font-family="'Helvetica Neue', Helvetica, Arial-Unicode, Arial, Sans-serif">from the Noun Project</text></svg>